<svg width="24" height="6" viewBox="0 0 24 6" fill="none" xmlns="http://www.w3.org/2000/svg">
<path d="M2.64773 5.25C1.95833 5.25 1.36742 5.00758 0.875 4.52273C0.382576 4.03788 0.140152 3.44697 0.147727 2.75C0.140152 2.06818 0.382576 1.48485 0.875 1C1.36742 0.515151 1.95833 0.272727 2.64773 0.272727C3.31439 0.272727 3.89394 0.515151 4.38636 1C4.88636 1.48485 5.14015 2.06818 5.14773 2.75C5.14015 3.21212 5.01894 3.63258 4.78409 4.01136C4.55682 4.39015 4.25379 4.69318 3.875 4.92045C3.50379 5.14015 3.0947 5.25 2.64773 5.25ZM11.929 5.25C11.2396 5.25 10.6487 5.00758 10.1562 4.52273C9.66383 4.03788 9.4214 3.44697 9.42898 2.75C9.4214 2.06818 9.66383 1.48485 10.1562 1C10.6487 0.515151 11.2396 0.272727 11.929 0.272727C12.5956 0.272727 13.1752 0.515151 13.6676 1C14.1676 1.48485 14.4214 2.06818 14.429 2.75C14.4214 3.21212 14.3002 3.63258 14.0653 4.01136C13.8381 4.39015 13.535 4.69318 13.1562 4.92045C12.785 5.14015 12.3759 5.25 11.929 5.25ZM21.2102 5.25C20.5208 5.25 19.9299 5.00758 19.4375 4.52273C18.9451 4.03788 18.7027 3.44697 18.7102 2.75C18.7027 2.06818 18.9451 1.48485 19.4375 1C19.9299 0.515151 20.5208 0.272727 21.2102 0.272727C21.8769 0.272727 22.4564 0.515151 22.9489 1C23.4489 1.48485 23.7027 2.06818 23.7102 2.75C23.7027 3.21212 23.5814 3.63258 23.3466 4.01136C23.1193 4.39015 22.8163 4.69318 22.4375 4.92045C22.0663 5.14015 21.6572 5.25 21.2102 5.25Z" fill="#F47950"/>
</svg>
