<svg width="40" height="40" viewBox="0 0 40 40" fill="none" xmlns="http://www.w3.org/2000/svg">
<path d="M0 20C0 14.6957 2.10714 9.60859 5.85786 5.85786C9.60859 2.10714 14.6957 0 20 0C25.3043 0 30.3914 2.10714 34.1421 5.85786C37.8929 9.60859 40 14.6957 40 20C40 25.3043 37.8929 30.3914 34.1421 34.1421C30.3914 37.8929 25.3043 40 20 40C14.6957 40 9.60859 37.8929 5.85786 34.1421C2.10714 30.3914 0 25.3043 0 20ZM14.7109 11.4922C14.1172 11.8203 13.75 12.4531 13.75 13.125V26.875C13.75 27.5547 14.1172 28.1797 14.7109 28.5078C15.3047 28.8359 16.0234 28.8281 16.6094 28.4688L27.8594 21.5938C28.4141 21.25 28.7578 20.6484 28.7578 19.9922C28.7578 19.3359 28.4141 18.7344 27.8594 18.3906L16.6094 11.5156C16.0312 11.1641 15.3047 11.1484 14.7109 11.4766V11.4922Z" fill="#F47950"/>
</svg>
